<svg id="レイヤー_1" data-name="レイヤー 1" xmlns="http://www.w3.org/2000/svg" viewBox="0 0 256 256"><path d="M128,0A128,128,0,1,0,256,128,128,128,0,0,0,128,0Zm0,240A112,112,0,1,1,240,128,112,112,0,0,1,128,240Z"/><path d="M94.5,167.5a6.29,6.29,0,0,0-6.28,6.09v19a6.41,6.41,0,0,1-6.1,6.67H78.7a6.4,6.4,0,0,1-6.09-6.67V158a6.26,6.26,0,0,1,6.09-6.09h3.42a6.41,6.41,0,0,0,6.1-6.66v-19a6.34,6.34,0,0,1,6.28-6.28c3.23,0,7-1,8-1.9s1.53-4.19,1.53-7.62V94.78a6.5,6.5,0,0,1,6.66-6.66c3.23,0,6.66-.57,7.61-1.52s1.91-4.76,1.91-8V62.8a6.26,6.26,0,0,1,6.09-6.09h3.42a6.26,6.26,0,0,1,6.09,6.09V78.6c0,3.24,1,7.05,1.91,8s4.38,1.52,7.61,1.52c3.81,0,6.28,2.86,6.28,6.66v15.61c0,3.43,1,6.66,1.91,7.62s4.18,1.9,8,1.9a6.34,6.34,0,0,1,6.28,6.28v19a6.41,6.41,0,0,0,6.1,6.66h3.42a6.26,6.26,0,0,1,6.09,6.09v34.64a6.4,6.4,0,0,1-6.09,6.67h-3.42a6.41,6.41,0,0,1-6.1-6.67v-19a6.39,6.39,0,0,0-6.66-6.09Zm50.82-15.61a6.43,6.43,0,0,0,6.28-6.66v-15.8c0-3.24-.57-7.05-1.52-8s-4.76-1.52-8-1.52a6.31,6.31,0,0,1-6.29-6.09V98c0-3.81-.38-7-1.33-8s-3.8-1.9-6.66-1.9c-2.47,0-5.33.95-6.28,1.9s-1.33,4.19-1.33,8v15.8a6.31,6.31,0,0,1-6.29,6.09c-3.8,0-7,.57-8,1.52s-1.9,4.76-1.9,8v15.8a6.5,6.5,0,0,0,6.66,6.66Z"/></svg>
