<svg id="レイヤー_1" data-name="レイヤー 1" xmlns="http://www.w3.org/2000/svg" viewBox="0 0 256 256"><path d="M128,0A128,128,0,1,0,256,128,128,128,0,0,0,128,0Zm0,240A112,112,0,1,1,240,128,112,112,0,0,1,128,240Z"/><path d="M80.41,70.7a6.31,6.31,0,0,1,6.09-6.28c3.43,0,7.24-1,8.19-1.9S96,58.33,96,54.9a6,6,0,0,1,6.28-6.09h50.83a6,6,0,0,1,6.28,6.09c0,3.43,1,6.67,1.9,7.62s4.19,1.9,8,1.9a6.34,6.34,0,0,1,6.28,6.28v98.42a6.31,6.31,0,0,1-6.28,6.09c-3.81,0-7.05.95-8,1.9s-1.9,3.81-1.9,6.28c0,2.29,1,5.14,1.9,6.09s4.19,1.91,8,1.91a6.34,6.34,0,0,1,6.28,6.28v3.24a6.43,6.43,0,0,1-6.66,6.28h-2.86a6.43,6.43,0,0,1-6.66-6.28c0-3.24-.57-7-1.52-8s-4.76-1.52-8-1.52H102.3A6.43,6.43,0,0,1,96,184.73c0-3.24-.38-6.67-1.33-7.62s-4.76-1.9-8.19-1.9a6.27,6.27,0,0,1-6.09-6.09Zm15.61,95c0,3.43,1,7.23,1.9,8.19s4.38,1.33,8.19,1.33h15.23a6.4,6.4,0,0,0,6.66-6.09c0-3.43-1-7.24-1.9-8.19a25,25,0,0,0-7.62-1.33,6.4,6.4,0,0,1-6.66-6.09v-3.43a6.4,6.4,0,0,1,6.66-6.09h2.86c3.81,0,6.66,2.28,6.66,6.09,0,3.43.38,6.66,1.33,7.61s4.76,1.91,8.19,1.91a6.26,6.26,0,0,1,6.09,6.09v3.43a6.3,6.3,0,0,0,6.28,6.09c3.24,0,7-.38,8-1.33s1.52-4.76,1.52-8.19V73.94c0-3.24-.57-7-1.52-8s-4.76-1.52-8-1.52H106.11c-3.81,0-7.23.57-8.19,1.52s-1.9,4.76-1.9,8Z"/></svg>
